<svg aria-hidden="true" style="position: absolute; width: 0; height: 0; overflow: hidden;" version="1.1" xmlns="http://www.w3.org/2000/svg" xmlns:xlink="http://www.w3.org/1999/xlink">
<defs>
<symbol id="instagram" viewBox="0 0 32 32">
<title>instagram</title>
<path d="M27.313 0h-22.625c-2.584 0-4.688 2.103-4.688 4.688v22.625c0 2.584 2.103 4.688 4.688 4.688h22.625c2.584 0 4.688-2.103 4.688-4.688v-22.625c0-2.584-2.103-4.688-4.688-4.688zM16.063 24.375c-4.653 0-8.438-3.785-8.438-8.438s3.785-8.438 8.438-8.438 8.438 3.785 8.438 8.438-3.785 8.438-8.438 8.438zM25.438 9.375c-1.551 0-2.813-1.262-2.813-2.813s1.262-2.813 2.813-2.813 2.813 1.262 2.813 2.813-1.262 2.813-2.813 2.813z"></path>
<path d="M25.438 5.625c-0.517 0-0.938 0.42-0.938 0.938s0.42 0.938 0.938 0.938 0.938-0.42 0.938-0.938-0.42-0.938-0.938-0.938z"></path>
<path d="M16.063 9.375c-3.618 0-6.563 2.944-6.563 6.563s2.944 6.563 6.563 6.563 6.563-2.944 6.563-6.563-2.944-6.563-6.563-6.563z"></path>
</symbol>
<symbol id="close-envelope" viewBox="0 0 32 32">
<title>close-envelope</title>
<path d="M16 20.571l-3.959-3.465-11.319 9.703c0.411 0.382 0.967 0.619 1.579 0.619h27.397c0.61 0 1.163-0.238 1.573-0.619l-11.312-9.703-3.959 3.465z"></path>
<path d="M31.278 5.191c-0.411-0.384-0.965-0.619-1.579-0.619h-27.397c-0.61 0-1.163 0.238-1.575 0.624l15.273 13.090 15.278-13.095z"></path>
<path d="M0 6.578v18.99l11.047-9.387z"></path>
<path d="M20.953 16.181l11.047 9.387v-18.997z"></path>
</symbol>
<symbol id="youtube" viewBox="0 0 32 32">
<title>youtube</title>
<path d="M27.313 3.813h-22.625c-2.584 0-4.688 2.103-4.688 4.688v15c0 2.584 2.103 4.688 4.688 4.688h22.625c2.584 0 4.688-2.103 4.688-4.688v-15c0-2.584-2.103-4.688-4.688-4.688zM11.313 22.464v-12.744l11.281 6.267z"></path>
<path d="M13.188 12.906v6.319l5.594-3.211z"></path>
</symbol>
<symbol id="facebook-letter-logo" viewBox="0 0 32 32">
<title>facebook-letter-logo</title>
<path d="M11.761 6.197c0 0.806 0 4.406 0 4.406h-3.228v5.387h3.228v16.009h6.631v-16.009h4.449c0 0 0.417-2.583 0.619-5.408-0.579 0-5.043 0-5.043 0s0-3.134 0-3.684c0-0.551 0.723-1.291 1.437-1.291 0.713 0 2.218 0 3.613 0 0-0.734 0-3.268 0-5.609-1.861 0-3.979 0-4.912 0-6.958-0-6.794 5.392-6.794 6.197z"></path>
</symbol>
</defs>
</svg>
